<?xml version="1.0" encoding="UTF-8" standalone="no"?>
<!-- Created with Inkscape (http://www.inkscape.org/) -->

<svg
   width="25.555902mm"
   height="20.111837mm"
   viewBox="0 0 25.555902 20.111838"
   version="1.1"
   id="svg5"
   xml:space="preserve"
   inkscape:export-filename="bitmap.png"
   inkscape:export-xdpi="300"
   inkscape:export-ydpi="300"
   inkscape:version="1.2.2 (b0a84865, 2022-12-01)"
   sodipodi:docname="logo.svg"
   xmlns:inkscape="http://www.inkscape.org/namespaces/inkscape"
   xmlns:sodipodi="http://sodipodi.sourceforge.net/DTD/sodipodi-0.dtd"
   xmlns="http://www.w3.org/2000/svg"
   xmlns:svg="http://www.w3.org/2000/svg"><sodipodi:namedview
     id="namedview7"
     pagecolor="#ffffff"
     bordercolor="#000000"
     borderopacity="0.25"
     inkscape:showpageshadow="2"
     inkscape:pageopacity="0.0"
     inkscape:pagecheckerboard="0"
     inkscape:deskcolor="#d1d1d1"
     inkscape:document-units="mm"
     showgrid="false"
     inkscape:zoom="5.1754899"
     inkscape:cx="-56.902826"
     inkscape:cy="54.004549"
     inkscape:window-width="1703"
     inkscape:window-height="1205"
     inkscape:window-x="0"
     inkscape:window-y="25"
     inkscape:window-maximized="0"
     inkscape:current-layer="layer1" /><defs
     id="defs2" /><g
     inkscape:label="Layer 1"
     inkscape:groupmode="layer"
     id="layer1"
     transform="translate(-57.733753,-174.62531)"><path
       style="fill:#ffffff;stroke-width:0.0846667"
       d="m 58.563624,193.95013 c 0,0 5.434369,-0.0329 6.495183,-0.59559 2.187277,-1.16016 2.781402,-4.02699 1.187666,-5.73082 -0.46066,-0.49248 -0.506713,-0.50806 -0.571163,-0.1932 -0.117127,0.57221 -0.104674,0.56881 -2.189048,0.59776 -2.356946,0.0327 -3.019366,-0.0475 -3.805968,-0.46081 -2.841493,-1.49317 -2.495271,-5.79276 0.537451,-6.67439 0.387613,-0.11268 0.463748,-0.16496 0.42973,-0.29504 -0.704732,-2.6949 2.950897,-4.84861 5.954427,-3.50804 0.05284,0.0236 0.183393,-0.13985 0.29126,-0.36462 1.319976,-2.75051 5.653097,-2.8135 7.202424,-0.10469 0.156503,0.27362 0.322651,0.48154 0.369217,0.46203 0.932426,-0.3906 1.228265,-0.4827 1.688523,-0.52568 2.282987,-0.21319 4.280477,1.61664 4.280477,3.9212 0,0.33203 0.02028,0.36944 0.200291,0.36944 1.939427,0 3.320512,3.02129 2.322157,5.08 -0.813655,1.67785 -1.86169,2.11667 -5.055197,2.11667 -2.245842,0 -2.332388,-0.0208 -2.576333,-0.61862 -0.107078,-0.26242 -0.107078,-0.26242 -0.444692,0.0855 -1.686179,1.73749 -1.022644,4.81739 1.2717,5.90278 1.063803,0.50326 6.277673,0.53625 6.277673,0.53625 0,0 0.425225,0.16037 0.117435,0.73559 0,0 -16.06489,0.10046 -23.956084,0.0202 -0.525099,-0.91736 1.012908,-0.77082 -0.02713,-0.75592 z m 8.582302,-0.0663 c 0.413937,-0.22153 1.165493,-1.49317 1.386455,-2.34589 0.795234,-3.06891 -0.792337,-5.71312 -3.956751,-6.59023 -1.100369,-0.305 -1.440589,-0.5555 -1.784148,-1.31367 -0.330817,-0.73005 -0.981482,-0.9322 -0.860954,-0.26748 0.229087,1.26343 0.89762,1.86861 2.675104,2.4216 3.659927,1.13863 4.621463,5.54425 1.68802,7.73427 -0.287805,0.21487 -0.386901,0.33421 -0.315287,0.3797 0.15207,0.0966 0.977041,0.0837 1.167561,-0.0183 z m 2.925708,-0.021 c 0.01068,-0.0107 0.02971,-1.67661 0.04229,-3.70207 0.02942,-4.73533 -0.0017,-4.8223 -2.123975,-5.93519 -0.89282,-0.46818 -1.458198,-1.15963 -1.810039,-2.21363 -0.116445,-0.34883 -0.758824,-0.19212 -0.694091,0.16933 0.185796,1.03744 1.032831,2.08662 2.198271,2.72291 1.599284,0.87315 1.73701,1.19965 1.753206,4.15626 0.0144,2.62921 -0.158173,3.45893 -0.9542,4.58767 -0.160322,0.22733 -0.160322,0.22733 0.116692,0.26664 0.251812,0.0357 1.425592,-0.006 1.471845,-0.0519 z m 2.657503,0.0182 c 0,-0.0322 -0.04958,-0.0997 -0.110185,-0.15002 -0.675682,-0.56076 -0.987201,-2.02041 -0.989012,-4.63409 -0.0021,-2.97961 0.100727,-3.23435 1.679214,-4.1616 1.372287,-0.80612 2.140444,-1.72587 2.274185,-2.72297 0.07901,-0.58903 -0.576943,-0.53624 -0.775792,0.0624 -0.307063,0.92448 -0.734656,1.37352 -1.951323,2.04918 -0.814692,0.45243 -1.431683,1.05467 -1.728301,1.68699 -0.246553,0.52559 -0.305681,7.73667 -0.06475,7.89714 0.121046,0.0806 1.665968,0.0555 1.665968,-0.0271 z m 2.277536,0.007 c 0.28787,-10e-4 0.28787,-10e-4 -0.04237,-0.24037 -3.139162,-2.274 -2.144872,-7.0259 1.659499,-7.93106 1.67324,-0.39811 3.580196,-2.66705 2.24155,-2.66705 -0.304094,0 -0.37904,0.0292 -0.379677,0.14816 -0.0035,0.65817 -0.891219,1.46553 -1.844761,1.67782 -3.267877,0.72755 -5.049924,3.79341 -4.020537,6.917 0.462233,1.40261 1.231839,2.2511 1.929092,2.12684 0.09313,-0.0166 0.298875,-0.0307 0.457203,-0.0313 z m -3.724032,-9.88238 c 1.396719,-0.81318 2.457699,-3.66544 1.363466,-3.66544 -0.315862,0 -0.315862,0 -0.363823,0.63416 -0.09569,1.26525 -1.1157,2.6228 -1.801719,2.52174 -0.06576,-0.01 -0.128446,-0.0328 -0.186958,-0.0706 -0.99244,-0.64209 -1.437478,-1.35624 -1.519295,-2.43804 -0.04895,-0.64723 -0.04895,-0.64723 -0.385495,-0.64723 -0.721141,0 -0.301255,2.02896 0.621882,3.00504 0.858337,0.90757 1.518036,1.09933 2.271942,0.6604 z"
       id="path390"
       sodipodi:nodetypes="ccssccscccscsssssscscccccsssssccccssssscccccssscssccccsssccssccssscssscsss" /></g></svg>
