<?xml version="1.0" encoding="UTF-8" standalone="no"?>
<!-- Created with Inkscape (http://www.inkscape.org/) -->

<svg
   width="101.56961mm"
   height="101.86749mm"
   viewBox="0 0 101.56961 101.86749"
   version="1.1"
   id="svg5"
   xml:space="preserve"
   inkscape:version="1.2.2 (b0a84865, 2022-12-01)"
   sodipodi:docname="zoom-out.svg"
   inkscape:export-filename="zoom-out.png"
   inkscape:export-xdpi="90"
   inkscape:export-ydpi="90"
   xmlns:inkscape="http://www.inkscape.org/namespaces/inkscape"
   xmlns:sodipodi="http://sodipodi.sourceforge.net/DTD/sodipodi-0.dtd"
   xmlns="http://www.w3.org/2000/svg"
   xmlns:svg="http://www.w3.org/2000/svg"><sodipodi:namedview
     id="namedview7"
     pagecolor="#ffffff"
     bordercolor="#000000"
     borderopacity="0.25"
     inkscape:showpageshadow="2"
     inkscape:pageopacity="0.0"
     inkscape:pagecheckerboard="0"
     inkscape:deskcolor="#d1d1d1"
     inkscape:document-units="mm"
     showgrid="false"
     inkscape:zoom="1.2938725"
     inkscape:cx="-0.77287369"
     inkscape:cy="54.487595"
     inkscape:window-width="1916"
     inkscape:window-height="1205"
     inkscape:window-x="0"
     inkscape:window-y="25"
     inkscape:window-maximized="0"
     inkscape:current-layer="layer1" /><defs
     id="defs2" /><g
     inkscape:label="Layer 1"
     inkscape:groupmode="layer"
     id="layer1"
     transform="translate(-46.962028,-54.042889)"><path
       style="fill:#ffffff;stroke-width:0.264583"
       d="m 137.95178,155.54529 c -2.24541,-0.74407 -3.23679,-1.61909 -14.0919,-12.43797 C 113.0622,132.34569 112.65805,131.97609 112.08592,132.33985 70.052637,159.06441 24.296355,101.97336 59.518858,66.750858 94.681153,31.58856 150.81511,76.087901 125.33848,118.92836 l -0.5927,0.99666 11.15233,11.17417 c 12.67966,12.70448 12.63353,12.64484 12.63353,16.33354 0,5.51779 -5.5553,9.77755 -10.57986,8.11256 z M 94.036938,125.87674 C 116.3936,122.25059 126.64759,95.799981 112.53262,78.166341 95.513093,56.904093 61.098547,68.105636 59.862642,95.309821 59.013155,114.00837 75.62156,128.86363 94.036938,125.87674 Z m -15.65471,-25.01067 c -7.562242,0 -7.991779,-0.0832 -9.303192,-1.802579 -0.931963,-1.22187 -1.015434,-3.57393 -0.167153,-4.71011 1.36747,-1.83158 1.281792,-1.81372 9.118494,-1.89992 l 22.376743,-0.05403 c 8.7195,0 10.028,0.55239 10.028,4.23333 0,3.680949 -1.3085,4.233339 -10.028,4.233339 z"
       id="path302"
       sodipodi:nodetypes="sscsscssssssscssccscc" /></g></svg>
